<svg width="14" height="14" viewBox="0 0 14 14" fill="none" xmlns="http://www.w3.org/2000/svg">
<path d="M4.93794 6.58762C5.59886 5.9267 6.75152 5.9267 7.41244 6.58762L7.82486 7.00004L8.64969 6.1752L8.23727 5.76279C7.68719 5.21212 6.95452 4.9082 6.17519 4.9082C5.39586 4.9082 4.66319 5.21212 4.11311 5.76279L2.87527 7.00004C2.32945 7.54762 2.02295 8.28925 2.02295 9.06241C2.02295 9.83557 2.32945 10.5772 2.87527 11.1248C3.14587 11.3958 3.46734 11.6106 3.82122 11.757C4.1751 11.9033 4.55441 11.9783 4.93736 11.9776C5.32041 11.9784 5.69984 11.9035 6.05383 11.7571C6.40782 11.6108 6.72938 11.3959 7.00002 11.1248L7.41244 10.7124L6.58761 9.88754L6.17519 10.3C5.84647 10.6272 5.4015 10.8109 4.93765 10.8109C4.4738 10.8109 4.02883 10.6272 3.70011 10.3C3.37257 9.97138 3.18864 9.52636 3.18864 9.06241C3.18864 8.59847 3.37257 8.15344 3.70011 7.82487L4.93794 6.58762Z" fill="#FF9A62"/>
<path d="M7.00001 2.87527L6.58759 3.28768L7.41243 4.11252L7.82484 3.7001C8.15357 3.37284 8.59853 3.18912 9.06238 3.18912C9.52623 3.18912 9.9712 3.37284 10.2999 3.7001C10.6275 4.02867 10.8114 4.4737 10.8114 4.93764C10.8114 5.40159 10.6275 5.84661 10.2999 6.17518L9.06209 7.41243C8.40118 8.07335 7.24851 8.07335 6.58759 7.41243L6.17518 7.00002L5.35034 7.82485L5.76276 8.23727C6.31284 8.78793 7.04551 9.09185 7.82484 9.09185C8.60418 9.09185 9.33684 8.78793 9.88693 8.23727L11.1248 7.00002C11.6706 6.45243 11.9771 5.7108 11.9771 4.93764C11.9771 4.16448 11.6706 3.42285 11.1248 2.87527C10.5773 2.32915 9.83564 2.02246 9.06238 2.02246C8.28913 2.02246 7.54744 2.32915 7.00001 2.87527Z" fill="#FF9A62"/>
</svg>
