<svg width="14" height="14" viewBox="0 0 14 14" fill="none" xmlns="http://www.w3.org/2000/svg">
<g opacity="0.7">
<path d="M13.125 3.49996C13.125 3.03583 12.9406 2.59071 12.6124 2.26252C12.2842 1.93433 11.8391 1.74996 11.375 1.74996H10.9375V1.32476C10.9375 1.08934 10.7565 0.887265 10.5211 0.875507C10.4619 0.872657 10.4028 0.881846 10.3473 0.902519C10.2918 0.923191 10.2411 0.954916 10.1982 0.995771C10.1553 1.03663 10.1212 1.08576 10.0979 1.1402C10.0745 1.19463 10.0625 1.25324 10.0625 1.31246V1.74996H3.9375V1.32476C3.9375 1.08934 3.75648 0.887265 3.52105 0.875507C3.4619 0.872657 3.40278 0.881846 3.34729 0.902519C3.29179 0.923191 3.24107 0.954916 3.19819 0.995771C3.15532 1.03663 3.12118 1.08576 3.09786 1.1402C3.07453 1.19463 3.06251 1.25324 3.0625 1.31246V1.74996H2.625C2.16087 1.74996 1.71575 1.93433 1.38756 2.26252C1.05937 2.59071 0.875 3.03583 0.875 3.49996V3.82809C0.875 3.85709 0.886523 3.88491 0.907035 3.90543C0.927547 3.92594 0.955367 3.93746 0.984375 3.93746H13.0156C13.0446 3.93746 13.0725 3.92594 13.093 3.90543C13.1135 3.88491 13.125 3.85709 13.125 3.82809V3.49996ZM0.875 11.375C0.875 11.8391 1.05937 12.2842 1.38756 12.6124C1.71575 12.9406 2.16087 13.125 2.625 13.125H11.375C11.8391 13.125 12.2842 12.9406 12.6124 12.6124C12.9406 12.2842 13.125 11.8391 13.125 11.375V4.92183C13.125 4.89283 13.1135 4.86501 13.093 4.8445C13.0725 4.82398 13.0446 4.81246 13.0156 4.81246H0.984375C0.955367 4.81246 0.927547 4.82398 0.907035 4.8445C0.886523 4.86501 0.875 4.89283 0.875 4.92183V11.375Z" fill="#040A19"/>
</g>
</svg>
