<svg width="17" height="17" viewBox="0 0 17 17" fill="none" xmlns="http://www.w3.org/2000/svg">
<path fill-rule="evenodd" clip-rule="evenodd" d="M4.52676 8.83716C5.50028 9.93366 6.92004 10.6251 8.50024 10.6251C10.0804 10.6251 11.5002 9.93366 12.4737 8.83716C13.1173 9.08631 13.7089 9.46828 14.2064 9.9658C15.1449 10.9042 15.6721 12.1769 15.6721 13.5042V14.3438C15.6721 14.7664 15.5042 15.1718 15.2054 15.4709C14.9063 15.7697 14.501 15.9376 14.0784 15.9376H2.92212C2.49951 15.9376 2.09417 15.7697 1.79507 15.4709C1.49624 15.1718 1.32837 14.7664 1.32837 14.3438V13.5042C1.32837 12.1769 1.85563 10.9042 2.79409 9.9658C3.2916 9.46828 3.88315 9.08631 4.52676 8.83716Z" fill="#040A19"/>
<path fill-rule="evenodd" clip-rule="evenodd" d="M8.50006 9.56214C6.15309 9.56214 4.25049 7.65954 4.25049 5.31256C4.25049 2.96559 6.15309 1.06299 8.50006 1.06299C10.847 1.06299 12.7496 2.96559 12.7496 5.31256C12.7496 7.65954 10.847 9.56213 8.50006 9.56214Z" fill="#040A19"/>
</svg>
