<svg width="18" height="18" viewBox="0 0 18 18" fill="none" xmlns="http://www.w3.org/2000/svg">
<path d="M15.2219 2.92493H2.76863C1.74875 2.92493 0.916748 3.75693 0.916748 4.77681V6.0114H17.1006V4.77681C17.0738 3.75693 16.2418 2.92493 15.2219 2.92493ZM5.26466 5.01836C4.99627 5.25991 4.59368 5.23307 4.35213 4.96469C4.11058 4.6963 4.16426 4.29371 4.43265 4.05216C4.70104 3.81061 5.10362 3.83745 5.34517 4.10584C5.58672 4.37423 5.55988 4.77681 5.26466 5.01836ZM9.10262 5.15256C8.75372 5.15256 8.45849 4.85733 8.45849 4.50842C8.45849 4.15952 8.75372 3.86429 9.10262 3.86429C9.45153 3.86429 9.74676 4.15952 9.74676 4.50842C9.74676 4.88417 9.45153 5.15256 9.10262 5.15256ZM13.1285 5.15256C12.7796 5.15256 12.4843 4.85733 12.4843 4.50842C12.4843 4.15952 12.7796 3.86429 13.1285 3.86429C13.4774 3.86429 13.7726 4.15952 13.7726 4.50842C13.7726 4.88417 13.4774 5.15256 13.1285 5.15256Z" fill="#040A19"/>
<path d="M0.916748 14.4919C0.916748 15.5118 1.74876 16.3438 2.76864 16.3438H15.2219C16.2418 16.3438 17.0738 15.5118 17.0738 14.4919V6.3866H0.916748V14.4919Z" fill="#040A19"/>
<path d="M13.129 4.80349C12.968 4.80349 12.8606 4.69614 12.8606 4.5351V1.74385C12.8606 1.58282 12.968 1.47546 13.129 1.47546C13.29 1.47546 13.3974 1.58282 13.3974 1.74385V4.5351C13.3974 4.6693 13.2632 4.80349 13.129 4.80349Z" fill="#040A19"/>
<path d="M9.10311 4.80349C8.94207 4.80349 8.83472 4.69614 8.83472 4.5351V1.74385C8.83472 1.58282 8.94207 1.47546 9.10311 1.47546C9.26414 1.47546 9.3715 1.58282 9.3715 1.74385V4.5351C9.3715 4.6693 9.2373 4.80349 9.10311 4.80349Z" fill="#040A19"/>
<path d="M4.86238 4.80349C4.70135 4.80349 4.59399 4.69614 4.59399 4.5351V1.74385C4.59399 1.58282 4.70135 1.47546 4.86238 1.47546C5.02342 1.47546 5.13077 1.58282 5.13077 1.74385V4.5351C5.13077 4.6693 4.99658 4.80349 4.86238 4.80349Z" fill="#040A19"/>
<path d="M14.7762 15.2999H3.22393C2.44482 15.2999 1.80005 14.6729 1.80005 13.9151V7.19995H16.2V13.9151C16.2 14.6729 15.5553 15.2999 14.7762 15.2999Z" fill="#040A19"/>
</svg>
