<svg width="24" height="24" viewBox="0 0 24 24" fill="none" xmlns="http://www.w3.org/2000/svg">
<path d="M0.921631 14.2271V9.77275C0.921631 8.97201 1.23972 8.20406 1.80593 7.63785C2.37214 7.07164 3.14009 6.75355 3.94083 6.75355H7.42083L11.5704 2.75035C11.7494 2.57429 11.9765 2.45523 12.2231 2.40821C12.4696 2.36119 12.7246 2.38833 12.9558 2.48619C13.187 2.58405 13.3839 2.74824 13.5218 2.95802C13.6597 3.16779 13.7323 3.41373 13.7304 3.66475V20.3351C13.7323 20.5862 13.6597 20.8321 13.5218 21.0419C13.3839 21.2517 13.187 21.4158 12.9558 21.5137C12.7246 21.6116 12.4696 21.6387 12.2231 21.5917C11.9765 21.5447 11.7494 21.4256 11.5704 21.2495L7.42083 17.2463H3.94083C3.54434 17.2463 3.15174 17.1683 2.78543 17.0165C2.41913 16.8648 2.08629 16.6424 1.80593 16.362C1.23972 15.7958 0.921631 15.0279 0.921631 14.2271ZM16.8696 15.3767C17.76 14.4779 18.2595 13.2639 18.2595 11.9987C18.2595 10.7336 17.76 9.51958 16.8696 8.62075C16.7881 8.5337 16.6823 8.47316 16.5659 8.44697C16.4496 8.42078 16.328 8.43015 16.2171 8.47386C16.1061 8.51757 16.0108 8.59362 15.9436 8.69213C15.8764 8.79064 15.8403 8.90708 15.84 9.02635V14.9735C15.8408 15.0926 15.8772 15.2087 15.9446 15.3069C16.012 15.405 16.1073 15.4807 16.2182 15.5241C16.329 15.5675 16.4504 15.5767 16.5665 15.5504C16.6827 15.5241 16.7882 15.4636 16.8696 15.3767ZM17.5344 20.7215C19.1919 19.9446 20.5937 18.7115 21.5756 17.1667C22.5576 15.6219 23.0791 13.8293 23.0791 11.9987C23.0791 10.1682 22.5576 8.37562 21.5756 6.83079C20.5937 5.28597 19.1919 4.05289 17.5344 3.27595C17.2448 3.14292 16.9142 3.13038 16.6154 3.24111C16.3165 3.35183 16.0739 3.57673 15.9408 3.86635C15.8078 4.15597 15.7953 4.48657 15.906 4.78543C16.0167 5.08428 16.2416 5.32692 16.5312 5.45995C17.769 6.04657 18.8148 6.97244 19.5471 8.12994C20.2795 9.28745 20.6682 10.629 20.6682 11.9987C20.6682 13.3685 20.2795 14.7101 19.5471 15.8676C18.8148 17.0251 17.769 17.9509 16.5312 18.5375C16.2416 18.6706 16.0167 18.9132 15.906 19.2121C15.7953 19.5109 15.8078 19.8415 15.9408 20.1311C16.0739 20.4208 16.3165 20.6457 16.6154 20.7564C16.9142 20.8671 17.2448 20.8546 17.5344 20.7215Z" fill="white"/>
</svg>
