<svg width="98" height="64" viewBox="0 0 98 64" fill="none" xmlns="http://www.w3.org/2000/svg">
<g filter="url(#filter0_d_2_515)">
<rect x="14" y="10" width="70" height="36" rx="5" fill="#EC28C1"/>
</g>
<path d="M41.234 30.782H42.662V28.192H45.126V26.918H42.662V24.356H41.234V26.918H38.714V28.192H41.234V30.782ZM52.974 29.018C52.974 27.156 51.476 26.134 49.824 26.134C49.404 26.134 49.012 26.176 48.648 26.26V24.09H52.456V22.76H47.192V27.408H49.32C50.678 27.408 51.448 27.996 51.448 29.046C51.448 30.11 50.636 30.796 49.53 30.796C48.536 30.796 47.85 30.278 47.29 29.424L46.254 30.166C46.884 31.356 48.046 32.154 49.572 32.154C51.406 32.154 52.974 30.88 52.974 29.018ZM54.5223 31.076C54.5223 31.692 55.0123 32.154 55.6283 32.154C56.2443 32.154 56.7063 31.692 56.7063 31.076C56.7063 30.446 56.2443 29.984 55.6283 29.984C55.0123 29.984 54.5223 30.46 54.5223 31.076ZM65.0121 29.592C65.0121 28.416 64.2281 27.646 63.0101 27.198C64.0321 26.652 64.5781 25.938 64.5781 24.972C64.5781 24.23 64.2981 23.642 63.7521 23.236C63.2061 22.816 62.5061 22.606 61.6661 22.606C60.8121 22.606 60.1121 22.816 59.5521 23.236C59.0061 23.642 58.7261 24.23 58.7261 24.972C58.7261 25.966 59.2861 26.652 60.2941 27.198C59.0621 27.646 58.2921 28.416 58.2921 29.592C58.2921 31.146 59.6781 32.154 61.6661 32.154C63.6401 32.154 65.0121 31.146 65.0121 29.592ZM60.1401 25.028C60.1401 24.286 60.7701 23.824 61.6661 23.824C62.5481 23.824 63.1641 24.286 63.1641 25.028C63.1641 25.714 62.7021 26.078 61.6521 26.526C60.6021 26.064 60.1401 25.7 60.1401 25.028ZM63.5141 29.536C63.5141 30.376 62.8561 30.922 61.6661 30.922C60.4761 30.922 59.7901 30.376 59.7901 29.536C59.7901 28.71 60.4201 28.276 61.6521 27.842C62.8841 28.29 63.5141 28.696 63.5141 29.536ZM66.5942 27.296C66.5942 30.026 67.7562 32.154 70.1222 32.154C72.5022 32.154 73.6362 30.026 73.6362 27.296C73.6362 25.882 73.3422 24.748 72.7402 23.894C72.1522 23.04 71.2842 22.606 70.1222 22.606C68.9602 22.606 68.0922 23.04 67.4902 23.908C66.8882 24.762 66.5942 25.896 66.5942 27.296ZM72.0962 27.31C72.0962 29.494 71.4802 30.796 70.1222 30.796C68.7642 30.796 68.1342 29.494 68.1342 27.31C68.1342 25.084 68.7922 23.964 70.1222 23.964C71.4382 23.964 72.0962 25.084 72.0962 27.31Z" fill="white"/>
<g clip-path="url(#clip0_2_515)">
<path d="M32.5834 25.5L28.6251 29.4583L26.5417 27.375L23.4167 30.5" stroke="white" stroke-linecap="round" stroke-linejoin="round"/>
<path d="M30.0833 25.5H32.5833V28" stroke="white" stroke-linecap="round" stroke-linejoin="round"/>
</g>
<defs>
<filter id="filter0_d_2_515" x="0" y="0" width="98" height="64" filterUnits="userSpaceOnUse" color-interpolation-filters="sRGB">
<feFlood flood-opacity="0" result="BackgroundImageFix"/>
<feColorMatrix in="SourceAlpha" type="matrix" values="0 0 0 0 0 0 0 0 0 0 0 0 0 0 0 0 0 0 127 0" result="hardAlpha"/>
<feOffset dy="4"/>
<feGaussianBlur stdDeviation="7"/>
<feComposite in2="hardAlpha" operator="out"/>
<feColorMatrix type="matrix" values="0 0 0 0 0.92549 0 0 0 0 0.156863 0 0 0 0 0.756863 0 0 0 0.25 0"/>
<feBlend mode="normal" in2="BackgroundImageFix" result="effect1_dropShadow_2_515"/>
<feBlend mode="normal" in="SourceGraphic" in2="effect1_dropShadow_2_515" result="shape"/>
</filter>
<clipPath id="clip0_2_515">
<rect width="10" height="10" fill="white" transform="translate(23 23)"/>
</clipPath>
</defs>
</svg>
