<svg width="115" height="40" viewBox="0 0 115 40" fill="none" xmlns="http://www.w3.org/2000/svg">
<path fill-rule="evenodd" clip-rule="evenodd" d="M23.2722 1.15788L22.5932 0L21.9447 1.1753L16.05 11.8595L15.872 12.1821L16.0137 12.5222L16.4942 13.6752H15.6135H15.1724L14.9519 14.0573L1.13995 37.998L0.699138 38.7284L0 39.8868H1.353H13.4029H13.8222L14.0473 39.5331L14.5802 38.6956L14.9182 39.4391L15.1217 39.8868H15.6135H44.7186H46.0635L45.3745 38.7318L39.1114 28.2318L39.0574 28.1413L38.9809 28.0688L38.0318 27.1691L38.0286 27.1558H40.7317C44.7642 27.1558 47.3609 24.7119 47.3609 20.9238C47.3609 17.1663 44.7947 14.7834 40.7317 14.7834H34.1942V19.7812L23.2722 1.15788ZM34.1942 22.8006L22.6337 3.08847L17.5654 12.2748L18.3448 14.1452L18.7854 15.2027H17.6398H16.0546L2.69495 38.3593H12.9837L14.0481 36.6867L14.8046 35.4979L15.3877 36.7807L16.1052 38.3593H43.3738L37.8536 29.1048L37.3408 28.6187V31.202H37.3501L40.6659 36.9125H31.6396L34.1942 32.2542V27.7726L28.8764 36.9125H16.9028L15.7975 34.8862L19.2975 28.9915L20.587 30.8336H25.3765L27.7712 26.7809L25.3765 22.3599H20.587L11.9291 36.9125H4.92916L16.9028 16.4652H28.508L34.1942 25.8307V22.8006ZM22.7976 6.14946L19.1134 12.0442L20.4028 13.7021H27.2186L22.7976 6.14946ZM37.3408 17.5939V24.3147H40.7012C42.9312 24.3147 44.1532 23.0622 44.1532 20.9543C44.1532 18.877 42.9312 17.5939 40.7012 17.5939H37.3408ZM57.753 19.7935C58.1196 19.7935 58.4862 19.8546 58.8528 19.9462V22.7873H57.9058C55.6146 22.7873 54.0566 24.1314 54.0566 26.4837V34.9458H50.9406V19.9462H53.8122V21.7486C54.6981 20.4961 56.1645 19.7935 57.753 19.7935ZM67.8352 35.2819C63.8027 35.2819 60.9006 32.0437 60.9006 27.4308C60.9006 22.7873 63.8027 19.6102 67.8352 19.6102C71.8982 19.6102 74.8004 22.8484 74.8004 27.4308C74.8004 32.0437 71.8982 35.2819 67.8352 35.2819ZM67.8352 32.4408C70.1569 32.4408 71.6538 30.5162 71.6538 27.4613C71.6538 24.3758 70.1569 22.4512 67.8658 22.4512C65.544 22.4512 64.0471 24.3758 64.0471 27.4613C64.0471 30.5468 65.5135 32.4408 67.8352 32.4408ZM87.8496 25.5062L97.1366 14.539H98.4196L94.8148 34.9458H91.6683L93.8373 22.6956L87.8496 29.783H86.7804L82.9618 22.1458L80.7012 34.9458H77.5546L81.1288 14.539H82.4119L87.8496 25.5062ZM107.094 35.2819C103.062 35.2819 100.16 32.0437 100.16 27.4308C100.16 22.7873 103.062 19.6102 107.094 19.6102C111.157 19.6102 114.06 22.8484 114.06 27.4308C114.06 32.0437 111.157 35.2819 107.094 35.2819ZM107.094 32.4408C109.416 32.4408 110.913 30.5162 110.913 27.4613C110.913 24.3758 109.416 22.4512 107.125 22.4512C104.803 22.4512 103.306 24.3758 103.306 27.4613C103.306 30.5468 104.773 32.4408 107.094 32.4408Z" fill="#285FEC"/>
</svg>
