<svg width="10" height="8" viewBox="0 0 10 8" fill="none" xmlns="http://www.w3.org/2000/svg">
<path d="M8.6665 1.33325V3.33325H6.6665" stroke="#285FEC" stroke-width="0.7" stroke-linecap="round" stroke-linejoin="round"/>
<path d="M1.3335 6.66675V4.66675H3.3335" stroke="#285FEC" stroke-width="0.7" stroke-linecap="round" stroke-linejoin="round"/>
<path d="M1.83667 2.79926C2.00572 2.32152 2.29304 1.89439 2.67182 1.55773C3.0506 1.22107 3.50849 0.985849 4.00276 0.874013C4.49704 0.762177 5.01158 0.777374 5.4984 0.918185C5.98521 1.059 6.42842 1.32083 6.78667 1.67926L8.33333 3.13259M1 4.46593L2.54667 5.91926C2.90492 6.27769 3.34812 6.53952 3.83494 6.68034C4.32175 6.82115 4.8363 6.83634 5.33057 6.72451C5.82484 6.61267 6.28273 6.37745 6.66151 6.04079C7.04029 5.70413 7.32761 5.277 7.49667 4.79926" stroke="#285FEC" stroke-width="0.7" stroke-linecap="round" stroke-linejoin="round"/>
</svg>
