<svg width="19" height="19" viewBox="0 0 19 19" fill="none" xmlns="http://www.w3.org/2000/svg">
<path d="M17.6133 8.80782V10.3651C17.6088 10.5075 17.5565 10.6441 17.4648 10.7531C17.373 10.862 17.2472 10.9369 17.1077 10.9656L15.831 11.186C15.7903 11.1931 15.7489 11.1951 15.7077 11.192C15.5582 11.7714 15.3279 12.3269 15.0234 12.8421C15.0551 12.869 15.0833 12.8997 15.1073 12.9336L15.854 13.9926C15.9325 14.1115 15.9685 14.2533 15.9563 14.3952C15.9442 14.5371 15.8845 14.6707 15.7869 14.7744L14.6855 15.8755C14.5817 15.9731 14.4481 16.0328 14.3062 16.045C14.1644 16.0572 14.0225 16.0211 13.9037 15.9426L12.845 15.1959C12.811 15.1721 12.7803 15.1441 12.7535 15.1124C12.2328 15.4197 11.6712 15.6515 11.0853 15.8007C11.0964 15.8631 11.0964 15.927 11.0853 15.9894L10.889 17.1265C10.8564 17.2853 10.7712 17.4285 10.6472 17.5329C10.5232 17.6373 10.3677 17.6969 10.2057 17.702H8.79C8.62798 17.6969 8.47242 17.6373 8.34844 17.5329C8.22445 17.4285 8.13929 17.2853 8.1067 17.1265L7.91033 15.9894C7.89914 15.927 7.89914 15.8631 7.91033 15.8007C7.32448 15.6515 6.76282 15.4197 6.24218 15.1124C6.21541 15.1441 6.18466 15.1721 6.15067 15.1959L5.092 15.9426C4.9731 16.0211 4.8312 16.0571 4.68927 16.045C4.54734 16.0328 4.41366 15.9731 4.30986 15.8755L3.20844 14.7744C3.111 14.6706 3.05141 14.537 3.03929 14.3951C3.02717 14.2533 3.06323 14.1115 3.14165 13.9926L3.8884 12.9336C3.91224 12.8997 3.9403 12.869 3.97189 12.8421C3.66757 12.3269 3.43732 11.7714 3.28793 11.192C3.24665 11.1951 3.20515 11.1931 3.16436 11.186L1.88795 10.9656C1.7484 10.937 1.62259 10.8621 1.53084 10.7532C1.43909 10.6442 1.38676 10.5075 1.38232 10.3651V8.80782C1.38676 8.66545 1.43909 8.52873 1.53084 8.41977C1.62259 8.31081 1.7484 8.23597 1.88795 8.20736L3.16437 7.98694C3.20513 7.97963 3.24667 7.97772 3.28793 7.98126C3.43747 7.40189 3.66771 6.84642 3.97189 6.33114C3.94038 6.30409 3.91233 6.27324 3.8884 6.2393L3.14166 5.18063C3.06323 5.06174 3.02717 4.91988 3.03929 4.77797C3.05141 4.63605 3.111 4.50237 3.20845 4.39849L4.30987 3.29741C4.41371 3.19992 4.54737 3.14027 4.68929 3.12809C4.8312 3.11591 4.97308 3.15191 5.09201 3.23028L6.15068 3.97702C6.18466 4.00078 6.21542 4.02885 6.24218 4.06052C6.75751 3.75619 7.31311 3.52594 7.89264 3.37655C7.88898 3.33542 7.89077 3.29398 7.89798 3.25332L8.11874 1.97657C8.14735 1.83703 8.22219 1.71122 8.33114 1.61947C8.4401 1.52772 8.57682 1.47539 8.7192 1.47095H10.2765C10.4188 1.47539 10.5556 1.52771 10.6645 1.61946C10.7735 1.71121 10.8483 1.83703 10.8769 1.97657L11.0974 3.25332C11.1045 3.29398 11.1064 3.3354 11.103 3.37655C11.6825 3.526 12.2381 3.75625 12.7535 4.06051C12.7803 4.02884 12.811 4.00078 12.845 3.97702L13.9037 3.23028C14.0225 3.1519 14.1644 3.11589 14.3062 3.12807C14.4481 3.14025 14.5817 3.19991 14.6855 3.2974L15.7869 4.39848C15.8845 4.50228 15.9442 4.63596 15.9563 4.77789C15.9685 4.91983 15.9325 5.06172 15.854 5.18063L15.1073 6.2393C15.0832 6.27325 15.0551 6.3041 15.0235 6.33114C15.3279 6.84633 15.5582 7.40182 15.7078 7.98126C15.7489 7.97771 15.7903 7.97962 15.831 7.98693L17.1077 8.20735C17.2472 8.23602 17.373 8.31088 17.4648 8.41983C17.5565 8.52878 17.6088 8.66546 17.6133 8.80782ZM12.2616 9.58663C12.2616 9.04001 12.0995 8.50567 11.7959 8.05115C11.4922 7.59664 11.0606 7.24238 10.5556 7.03317C10.0506 6.82396 9.49494 6.76919 8.95883 6.8758C8.42271 6.9824 7.93025 7.24559 7.54371 7.63208C7.15717 8.01857 6.89392 8.51101 6.78725 9.04711C6.68057 9.58321 6.73527 10.1389 6.94442 10.6439C7.15357 11.1489 7.50778 11.5806 7.96225 11.8843C8.41673 12.188 8.95105 12.3501 9.49767 12.3502C10.2306 12.3502 10.9336 12.0591 11.452 11.5408C11.9703 11.0225 12.2615 10.3196 12.2616 9.58662V9.58663Z" fill="#040A19"/>
</svg>
