<svg width="19" height="19" viewBox="0 0 19 19" fill="none" xmlns="http://www.w3.org/2000/svg">
<path d="M9.50001 4.75001C8.78657 4.74826 8.08206 4.90865 7.4397 5.21908L13.781 11.5603C14.1296 10.8361 14.2887 10.0353 14.2435 9.23288C14.1983 8.43043 13.9503 7.65258 13.5225 6.97212C13.0948 6.29167 12.5014 5.73088 11.7979 5.34224C11.0944 4.95361 10.3037 4.74984 9.50001 4.75001Z" fill="#040A19"/>
<path d="M4.75001 9.50008C4.74989 10.265 4.93453 11.0187 5.2882 11.697C5.64188 12.3752 6.15414 12.9581 6.78141 13.3959C7.40868 13.8337 8.13241 14.1135 8.89104 14.2116C9.64968 14.3097 10.4208 14.223 11.1388 13.9591L5.04094 7.86133C4.84754 8.386 4.74903 8.9409 4.75001 9.50008Z" fill="#040A19"/>
<path d="M9.5 1.1875C7.85595 1.1875 6.24881 1.67502 4.88183 2.58841C3.51484 3.5018 2.44941 4.80003 1.82026 6.31894C1.1911 7.83785 1.02649 9.50922 1.34723 11.1217C1.66797 12.7342 2.45965 14.2153 3.62218 15.3778C4.7847 16.5403 6.26585 17.332 7.87832 17.6528C9.49078 17.9735 11.1622 17.8089 12.6811 17.1797C14.2 16.5506 15.4982 15.4852 16.4116 14.1182C17.325 12.7512 17.8125 11.1441 17.8125 9.5C17.8125 7.29539 16.9367 5.18107 15.3778 3.62217C13.8189 2.06328 11.7046 1.1875 9.5 1.1875ZM12.4688 14.6419C11.5675 15.1662 10.5427 15.4408 9.5 15.4375C7.92528 15.4375 6.41505 14.8119 5.30156 13.6984C4.18806 12.5849 3.5625 11.0747 3.5625 9.5C3.55887 8.45726 3.83352 7.43243 4.35813 6.53125C4.40409 6.45301 4.46737 6.38634 4.54311 6.33636C4.61886 6.28639 4.70505 6.25444 4.79506 6.24298C4.88508 6.23151 4.97653 6.24083 5.06238 6.27022C5.14823 6.2996 5.22621 6.34828 5.29032 6.4125L12.5756 13.7097C12.6399 13.7738 12.6885 13.8518 12.7179 13.9376C12.7473 14.0235 12.7566 14.1149 12.7452 14.2049C12.7337 14.295 12.7017 14.3811 12.6518 14.4569C12.6018 14.5326 12.5351 14.5959 12.4569 14.6419H12.4688ZM14.4103 12.8606C14.3612 12.9323 14.2969 12.9923 14.222 13.0365C14.1471 13.0806 14.0634 13.1077 13.9769 13.1159H13.9234C13.8453 13.1164 13.7678 13.1014 13.6955 13.0719C13.6232 13.0423 13.5574 12.9988 13.5019 12.9437L6.05625 5.51594C5.99475 5.45435 5.94753 5.38 5.91795 5.29814C5.88837 5.21629 5.87715 5.12893 5.88508 5.04225C5.89301 4.95558 5.9199 4.87171 5.96385 4.79658C6.00779 4.72145 6.06772 4.6569 6.13938 4.6075C7.12607 3.92308 8.29919 3.5583 9.5 3.5625C11.0747 3.5625 12.585 4.18806 13.6985 5.30155C14.8119 6.41505 15.4375 7.92528 15.4375 9.5C15.4417 10.7008 15.0769 11.8739 14.3925 12.8606H14.4103Z" fill="#040A19"/>
</svg>
