<svg width="12" height="12" viewBox="0 0 12 12" fill="none" xmlns="http://www.w3.org/2000/svg">
<path d="M10.6875 4.9125C10.6875 4.9125 10.125 5.4375 9.16871 6.05625C8.90621 4.5375 8.17496 2.6625 6.74996 0.375C6.74996 0.375 6.28121 2.83125 4.72496 5.1375C4.04996 4.0875 3.74996 3.2625 3.74996 3.2625C-1.12504 8.15625 2.92496 11.625 5.47496 11.625C8.73746 11.625 11.6062 10.05 10.6875 4.9125Z" fill="#FF9D33"/>
<path d="M8.75635 9.26252C9.0376 8.64377 9.24385 7.83752 9.28135 6.82502C9.28135 6.82502 8.8876 7.16252 8.2126 7.59377C8.0251 6.58127 7.51885 5.34377 6.5251 3.80627C6.5251 3.80627 6.20635 5.43752 5.11885 6.99377C4.6501 6.30002 4.44385 5.73752 4.44385 5.73752C3.6376 7.01252 3.31885 8.02502 3.3001 8.83127C2.8501 8.66252 2.56885 8.53127 2.56885 8.53127C3.3376 10.8188 4.93135 11.325 5.64385 11.325C6.91885 11.325 8.2126 10.95 9.4876 9.13127C9.4876 9.11252 9.20635 9.18752 8.75635 9.26252Z" fill="#FFCE31"/>
<path d="M4.10627 8.23125C4.10627 8.23125 4.63127 8.94375 5.02502 8.775C5.02502 8.775 5.77502 7.59375 6.86252 6.9375C6.86252 6.9375 6.63752 8.7375 6.90002 9.05625C7.23752 9.4875 8.15627 8.5875 8.15627 8.5875C8.15627 9.65625 6.99377 10.9875 5.94377 10.9875C4.93127 10.9875 3.46877 9.825 4.10627 8.23125Z" fill="#FFDF85"/>
<path d="M9.33772 3.3937C9.73146 2.8312 9.99397 2.2312 9.99397 2.2312C10.6502 3.3187 10.2565 3.97495 9.97522 4.1812C9.58147 4.4812 8.88772 4.04995 9.33772 3.3937Z" fill="#FF9D33"/>
<path d="M2.17511 3.20623C1.78136 2.54998 1.74386 1.72498 1.74386 1.72498C0.80636 3.13123 1.16261 3.91873 1.48136 4.14373C1.89386 4.46248 2.60636 3.97498 2.17511 3.20623Z" fill="#FF9D33"/>
<path d="M4.35 1.74375C4.40625 1.29375 4.21875 0.84375 4.21875 0.84375C5.1 1.425 5.1 1.9125 4.9875 2.11875C4.81875 2.3625 4.29375 2.25 4.35 1.74375Z" fill="#FF9D33"/>
</svg>
