<svg width="14" height="14" viewBox="0 0 14 14" fill="none" xmlns="http://www.w3.org/2000/svg">
<path d="M11.0833 1.75H2.91667C2.27233 1.75 1.75 2.27233 1.75 2.91667V11.0833C1.75 11.7277 2.27233 12.25 2.91667 12.25H11.0833C11.7277 12.25 12.25 11.7277 12.25 11.0833V2.91667C12.25 2.27233 11.7277 1.75 11.0833 1.75Z" stroke="#040A19" stroke-width="1.16667" stroke-linecap="round" stroke-linejoin="round"/>
<path d="M4.95825 5.83337C5.4415 5.83337 5.83325 5.44162 5.83325 4.95837C5.83325 4.47512 5.4415 4.08337 4.95825 4.08337C4.475 4.08337 4.08325 4.47512 4.08325 4.95837C4.08325 5.44162 4.475 5.83337 4.95825 5.83337Z" stroke="#040A19" stroke-width="1.16667" stroke-linecap="round" stroke-linejoin="round"/>
<path d="M12.2501 8.75004L9.33341 5.83337L2.91675 12.25" stroke="#040A19" stroke-width="1.16667" stroke-linecap="round" stroke-linejoin="round"/>
</svg>
